{
  "accessors": [
    {
      "bufferView": 2,
      "componentType": 5126,
      "count": 96,
      "max": [
        110.49183654785156,
        122.97000122070313,
        35.40159606933594
      ],
      "min": [
        -127.09939575195313,
        -122.68777465820313,
        0.0
      ],
      "type": "VEC3"
    },
    {
      "bufferView": 2,
      "byteOffset": 1152,
      "componentType": 5126,
      "count": 96,
      "max": [
        1.0,
        1.0,
        1.0
      ],
      "min": [
        -1.0,
        -1.0,
        -1.0
      ],
      "type": "VEC3"
    },
    {
      "bufferView": 1,
      "componentType": 5126,
      "count": 96,
      "max": [
        1.0,
        1.0
      ],
      "min": [
        0.0,
        0.0
      ],
      "type": "VEC2"
    },
    {
      "bufferView": 0,
      "componentType": 5125,
      "count": 180,
      "type": "SCALAR"
    },
    {
      "bufferView": 2,
      "byteOffset": 2304,
      "componentType": 5126,
      "count": 4,
      "max": [
        -76.99998474121094,
        50.498111724853516,
        97.29005432128906
      ],
      "min": [
        -77.00001525878906,
        -51.3562126159668,
        80.06267547607422
      ],
      "type": "VEC3"
    },
    {
      "bufferView": 2,
      "byteOffset": 2352,
      "componentType": 5126,
      "count": 4,
      "max": [
        -1.0,
        2.621673900193855e-07,
        2.2143225919535325e-07
      ],
      "min": [
        -1.0,
        2.621673900193855e-07,
        2.2143225919535325e-07
      ],
      "type": "VEC3"
    },
    {
      "bufferView": 1,
      "byteOffset": 768,
      "componentType": 5126,
      "count": 4,
      "max": [
        1.0694416761398315,
        0.9447751045227051
      ],
      "min": [
        -0.06944167613983154,
        0.055225372314453125
      ],
      "type": "VEC2"
    },
    {
      "bufferView": 0,
      "byteOffset": 720,
      "componentType": 5125,
      "count": 6,
      "type": "SCALAR"
    },
    {
      "bufferView": 2,
      "byteOffset": 2400,
      "componentType": 5126,
      "count": 1985,
      "max": [
        76.41421508789063,
        76.4142074584961,
        273.31280517578125
      ],
      "min": [
        -77.0,
        -76.41421508789063,
        0.0
      ],
      "type": "VEC3"
    },
    {
      "bufferView": 2,
      "byteOffset": 26220,
      "componentType": 5126,
      "count": 1985,
      "max": [
        1.0,
        1.0,
        1.0
      ],
      "min": [
        -1.0,
        -1.0,
        -1.0
      ],
      "type": "VEC3"
    },
    {
      "bufferView": 1,
      "byteOffset": 800,
      "componentType": 5126,
      "count": 1985,
      "max": [
        1.0,
        0.8129500150680542
      ],
      "min": [
        0.0,
        0.0
      ],
      "type": "VEC2"
    },
    {
      "bufferView": 0,
      "byteOffset": 744,
      "componentType": 5125,
      "count": 3633,
      "type": "SCALAR"
    },
    {
      "bufferView": 2,
      "byteOffset": 50040,
      "componentType": 5126,
      "count": 5523,
      "max": [
        110.48474884033203,
        122.95622253417969,
        293.154541015625
      ],
      "min": [
        -127.02618408203125,
        -122.63591003417969,
        -2.2797993419303164e-14
      ],
      "type": "VEC3"
    },
    {
      "bufferView": 2,
      "byteOffset": 116316,
      "componentType": 5126,
      "count": 5523,
      "max": [
        1.0,
        1.0,
        1.0
      ],
      "min": [
        -1.0,
        -1.0,
        -1.0
      ],
      "type": "VEC3"
    },
    {
      "bufferView": 1,
      "byteOffset": 16680,
      "componentType": 5126,
      "count": 5523,
      "max": [
        5.484009742736816,
        20.345661163330078
      ],
      "min": [
        -5.851824760437012,
        -20.143938064575195
      ],
      "type": "VEC2"
    },
    {
      "bufferView": 0,
      "byteOffset": 15276,
      "componentType": 5125,
      "count": 8442,
      "type": "SCALAR"
    },
    {
      "bufferView": 2,
      "byteOffset": 182592,
      "componentType": 5126,
      "count": 148,
      "max": [
        79.43824768066406,
        79.72850799560547,
        283.298828125
      ],
      "min": [
        -78.8708267211914,
        -79.35906982421875,
        0.0
      ],
      "type": "VEC3"
    },
    {
      "bufferView": 2,
      "byteOffset": 184368,
      "componentType": 5126,
      "count": 148,
      "max": [
        1.0,
        1.0,
        5.465141725835565e-07
      ],
      "min": [
        -1.0,
        -1.0,
        -1.0
      ],
      "type": "VEC3"
    },
    {
      "bufferView": 1,
      "byteOffset": 60864,
      "componentType": 5126,
      "count": 148,
      "max": [
        1.0,
        1.0
      ],
      "min": [
        0.0,
        0.0
      ],
      "type": "VEC2"
    },
    {
      "bufferView": 0,
      "byteOffset": 49044,
      "componentType": 5125,
      "count": 198,
      "type": "SCALAR"
    },
    {
      "bufferView": 2,
      "byteOffset": 186144,
      "componentType": 5126,
      "count": 406,
      "max": [
        79.43824768066406,
        79.72850799560547,
        283.298828125
      ],
      "min": [
        -78.8708267211914,
        -79.35906982421875,
        3.786640167236328
      ],
      "type": "VEC3"
    },
    {
      "bufferView": 2,
      "byteOffset": 191016,
      "componentType": 5126,
      "count": 406,
      "max": [
        1.0,
        1.0,
        1.0
      ],
      "min": [
        -1.0,
        -1.0,
        -3.2769975177870947e-07
      ],
      "type": "VEC3"
    },
    {
      "bufferView": 1,
      "byteOffset": 62048,
      "componentType": 5126,
      "count": 406,
      "max": [
        1.0,
        1.0
      ],
      "min": [
        0.0,
        0.0
      ],
      "type": "VEC2"
    },
    {
      "bufferView": 0,
      "byteOffset": 49836,
      "componentType": 5125,
      "count": 498,
      "type": "SCALAR"
    },
    {
      "bufferView": 2,
      "byteOffset": 195888,
      "componentType": 5126,
      "count": 68,
      "max": [
        30.263961791992188,
        50.498111724853516,
        97.29005432128906
      ],
      "min": [
        -94.43331909179688,
        -78.4034194946289,
        64.44667053222656
      ],
      "type": "VEC3"
    },
    {
      "bufferView": 2,
      "byteOffset": 196704,
      "componentType": 5126,
      "count": 68,
      "max": [
        1.0,
        1.0,
        1.0
      ],
      "min": [
        -1.0,
        -1.0,
        -1.0
      ],
      "type": "VEC3"
    },
    {
      "bufferView": 1,
      "byteOffset": 65296,
      "componentType": 5126,
      "count": 68,
      "max": [
        1.0,
        1.0
      ],
      "min": [
        0.0,
        0.0
      ],
      "type": "VEC2"
    },
    {
      "bufferView": 0,
      "byteOffset": 51828,
      "componentType": 5125,
      "count": 102,
      "type": "SCALAR"
    }
  ],
  "asset": {
    "extras": {
      "author": "tedpermana (https://sketchfab.com/tedpermana)",
      "license": "CC-BY-4.0 (http://creativecommons.org/licenses/by/4.0/)",
      "source": "https://sketchfab.com/3d-models/low-poly-building-f943ba2828a64b7d858ee6e4bdacedc6",
      "title": "Low Poly Building"
    },
    "generator": "Sketchfab-12.66.0",
    "version": "2.0"
  },
  "bufferViews": [
    {
      "buffer": 0,
      "byteLength": 52236,
      "name": "floatBufferViews",
      "target": 34963
    },
    {
      "buffer": 0,
      "byteLength": 65840,
      "byteOffset": 52236,
      "byteStride": 8,
      "name": "floatBufferViews",
      "target": 34962
    },
    {
      "buffer": 0,
      "byteLength": 197520,
      "byteOffset": 118076,
      "byteStride": 12,
      "name": "floatBufferViews",
      "target": 34962
    }
  ],
  "buffers": [
    {
      "byteLength": 315596,
      "uri": "scene.bin"
    }
  ],
  "materials": [
    {
      "doubleSided": true,
      "name": "15_-_Default6",
      "pbrMetallicRoughness": {
        "baseColorFactor": [
          0.05050087992200261,
          0.23509307101688112,
          0.043608947500247776,
          1.0
        ],
        "metallicFactor": 0.0,
        "roughnessFactor": 0.8929713596
      }
    },
    {
      "doubleSided": true,
      "name": "17_-_Default",
      "pbrMetallicRoughness": {
        "baseColorFactor": [
          0.44672920812723993,
          0.44672920812723993,
          0.44672920812723993,
          1.0
        ],
        "metallicFactor": 0.0,
        "roughnessFactor": 0.8929713596
      }
    },
    {
      "doubleSided": true,
      "name": "16_-_Defaultghj",
      "pbrMetallicRoughness": {
        "baseColorFactor": [
          0.35260612693710275,
          0.05553297510759542,
          0.05553297510759542,
          1.0
        ],
        "metallicFactor": 0.0,
        "roughnessFactor": 0.8929713596
      }
    },
    {
      "doubleSided": true,
      "name": "06_-_Default",
      "pbrMetallicRoughness": {
        "baseColorFactor": [
          0.4404641729196031,
          0.3987197874508946,
          0.16965898945327484,
          1.0
        ],
        "metallicFactor": 0.0,
        "roughnessFactor": 0.8929713596
      }
    },
    {
      "doubleSided": true,
      "name": "material",
      "pbrMetallicRoughness": {
        "baseColorFactor": [
          0.06725368186183119,
          0.06725368186183119,
          0.06725368186183119,
          1.0
        ],
        "metallicFactor": 0.0,
        "roughnessFactor": 0.6
      }
    },
    {
      "doubleSided": true,
      "name": "15_-_Default",
      "pbrMetallicRoughness": {
        "baseColorFactor": [
          0.10556041286686094,
          0.09518396713664273,
          0.026990963537505904,
          1.0
        ],
        "metallicFactor": 0.0,
        "roughnessFactor": 0.8929713596
      }
    }
  ],
  "meshes": [
    {
      "name": "Object014_15 - Default6_0",
      "primitives": [
        {
          "attributes": {
            "NORMAL": 1,
            "POSITION": 0,
            "TEXCOORD_0": 2
          },
          "indices": 3,
          "material": 0,
          "mode": 4
        }
      ]
    },
    {
      "name": "Object015_17 - Default_0",
      "primitives": [
        {
          "attributes": {
            "NORMAL": 5,
            "POSITION": 4,
            "TEXCOORD_0": 6
          },
          "indices": 7,
          "material": 1,
          "mode": 4
        }
      ]
    },
    {
      "name": "Object016_16 - Defaultghj_0",
      "primitives": [
        {
          "attributes": {
            "NORMAL": 9,
            "POSITION": 8,
            "TEXCOORD_0": 10
          },
          "indices": 11,
          "material": 2,
          "mode": 4
        }
      ]
    },
    {
      "name": "Object017_17 - Default_0",
      "primitives": [
        {
          "attributes": {
            "NORMAL": 13,
            "POSITION": 12,
            "TEXCOORD_0": 14
          },
          "indices": 15,
          "material": 1,
          "mode": 4
        }
      ]
    },
    {
      "name": "Object018_06 - Default_0",
      "primitives": [
        {
          "attributes": {
            "NORMAL": 17,
            "POSITION": 16,
            "TEXCOORD_0": 18
          },
          "indices": 19,
          "material": 3,
          "mode": 4
        }
      ]
    },
    {
      "name": "Object019_04_0",
      "primitives": [
        {
          "attributes": {
            "NORMAL": 21,
            "POSITION": 20,
            "TEXCOORD_0": 22
          },
          "indices": 23,
          "material": 4,
          "mode": 4
        }
      ]
    },
    {
      "name": "Object020_15 - Default_0",
      "primitives": [
        {
          "attributes": {
            "NORMAL": 25,
            "POSITION": 24,
            "TEXCOORD_0": 26
          },
          "indices": 27,
          "material": 5,
          "mode": 4
        }
      ]
    }
  ],
  "nodes": [
    {
      "children": [
        1
      ],
      "matrix": [
        1.0,
        0.0,
        0.0,
        0.0,
        0.0,
        2.220446049250313e-16,
        -1.0,
        0.0,
        0.0,
        1.0,
        2.220446049250313e-16,
        0.0,
        0.0,
        0.0,
        0.0,
        1.0
      ],
      "name": "Sketchfab_model"
    },
    {
      "children": [
        2
      ],
      "matrix": [
        1.0,
        0.0,
        0.0,
        0.0,
        0.0,
        0.0,
        1.0,
        0.0,
        0.0,
        -1.0,
        0.0,
        0.0,
        0.0,
        0.0,
        0.0,
        1.0
      ],
      "name": "2417a00bfae1461ba687a0b1038014f1.fbx"
    },
    {
      "children": [
        3,
        5,
        8,
        10,
        12,
        14,
        16
      ],
      "name": "RootNode"
    },
    {
      "children": [
        4
      ],
      "matrix": [
        2.7488416658634226e-08,
        -3.4908835029640484e-17,
        -0.6288616657257076,
        0.0,
        -0.6288616657257076,
        0.0,
        -2.748841676336073e-08,
        0.0,
        3.4908835029640484e-17,
        0.6288616657257081,
        -1.3963534011856194e-16,
        0.0,
        -1.7558670043945313,
        0.0,
        11.697601318359375,
        1.0
      ],
      "name": "Object014"
    },
    {
      "mesh": 0,
      "name": "Object014_15 - Default6_0"
    },
    {
      "children": [
        6
      ],
      "matrix": [
        2.7488416658634226e-08,
        -3.4908835029640484e-17,
        -0.6288616657257076,
        0.0,
        -0.6288616657257076,
        0.0,
        -2.748841676336073e-08,
        0.0,
        3.4908835029640484e-17,
        0.6288616657257081,
        -1.3963534011856194e-16,
        0.0,
        -1.4860610961914063,
        55.76516342163086,
        60.119964599609375,
        1.0
      ],
      "name": "Object015"
    },
    {
      "children": [
        7
      ],
      "matrix": [
        1.0,
        0.0,
        -0.0,
        0.0,
        0.0,
        1.0,
        0.0,
        0.0,
        0.0,
        0.0,
        1.0,
        0.0,
        77.0000228881836,
        0.4290351867675781,
        -88.67635345458984,
        1.0
      ],
      "name": "Object_6"
    },
    {
      "mesh": 1,
      "name": "Object015_17 - Default_0"
    },
    {
      "children": [
        9
      ],
      "matrix": [
        2.7488416658634226e-08,
        -3.4908835029640484e-17,
        -0.6288616657257076,
        0.0,
        -0.6288616657257076,
        0.0,
        -2.748841676336073e-08,
        0.0,
        3.4908835029640484e-17,
        0.6288616657257081,
        -1.3963534011856194e-16,
        0.0,
        -1.7558670043945313,
        0.0,
        11.697601318359375,
        1.0
      ],
      "name": "Object016"
    },
    {
      "mesh": 2,
      "name": "Object016_16 - Defaultghj_0"
    },
    {
      "children": [
        11
      ],
      "matrix": [
        2.7488416658634226e-08,
        -3.4908835029640484e-17,
        -0.6288616657257076,
        0.0,
        -0.6288616657257076,
        0.0,
        -2.748841676336073e-08,
        0.0,
        3.4908835029640484e-17,
        0.6288616657257081,
        -1.3963534011856194e-16,
        0.0,
        -1.7558670043945313,
        0.0,
        11.697601318359375,
        1.0
      ],
      "name": "Object017"
    },
    {
      "mesh": 3,
      "name": "Object017_17 - Default_0"
    },
    {
      "children": [
        13
      ],
      "matrix": [
        2.7488416658634226e-08,
        -3.4908835029640484e-17,
        -0.6288616657257076,
        0.0,
        -0.6288616657257076,
        0.0,
        -2.748841676336073e-08,
        0.0,
        3.4908835029640484e-17,
        0.6288616657257081,
        -1.3963534011856194e-16,
        0.0,
        -1.7558670043945313,
        0.0,
        11.697601318359375,
        1.0
      ],
      "name": "Object018"
    },
    {
      "mesh": 4,
      "name": "Object018_06 - Default_0"
    },
    {
      "children": [
        15
      ],
      "matrix": [
        2.7488416658634226e-08,
        -3.4908835029640484e-17,
        -0.6288616657257076,
        0.0,
        -0.6288616657257076,
        0.0,
        -2.748841676336073e-08,
        0.0,
        3.4908835029640484e-17,
        0.6288616657257081,
        -1.3963534011856194e-16,
        0.0,
        -1.7558670043945313,
        0.0,
        11.697601318359375,
        1.0
      ],
      "name": "Object019"
    },
    {
      "mesh": 5,
      "name": "Object019_04_0"
    },
    {
      "children": [
        17
      ],
      "matrix": [
        2.7488416658634226e-08,
        -3.4908835029640484e-17,
        -0.6288616657257076,
        0.0,
        -0.6288616657257076,
        0.0,
        -2.748841676336073e-08,
        0.0,
        3.4908835029640484e-17,
        0.6288616657257081,
        -1.3963534011856194e-16,
        0.0,
        -1.7558670043945313,
        0.0,
        11.697601318359375,
        1.0
      ],
      "name": "Object020"
    },
    {
      "mesh": 6,
      "name": "Object020_15 - Default_0"
    }
  ],
  "scene": 0,
  "scenes": [
    {
      "name": "Sketchfab_Scene",
      "nodes": [
        0
      ]
    }
  ]
}
