{
  "accessors": [
    {
      "bufferView": 2,
      "componentType": 5126,
      "count": 1458,
      "max": [
        647.0609130859375,
        1784.2274169921875,
        1259.75537109375
      ],
      "min": [
        -995.7634887695313,
        -6.902611255645752,
        -1131.168701171875
      ],
      "type": "VEC3"
    },
    {
      "bufferView": 2,
      "byteOffset": 17496,
      "componentType": 5126,
      "count": 1458,
      "max": [
        1.0,
        1.0,
        1.0
      ],
      "min": [
        -1.0,
        -1.0,
        -1.0
      ],
      "type": "VEC3"
    },
    {
      "bufferView": 3,
      "componentType": 5126,
      "count": 1458,
      "max": [
        1.0,
        1.0,
        1.0,
        1.0
      ],
      "min": [
        -1.0,
        -1.0,
        -1.0,
        1.0
      ],
      "type": "VEC4"
    },
    {
      "bufferView": 1,
      "componentType": 5126,
      "count": 1458,
      "max": [
        0.9999054074287415,
        0.9979512095451355
      ],
      "min": [
        0.0006238498026505113,
        0.0020488444715738297
      ],
      "type": "VEC2"
    },
    {
      "bufferView": 1,
      "byteOffset": 11664,
      "componentType": 5126,
      "count": 1458,
      "max": [
        0.9999054074287415,
        0.9979512095451355
      ],
      "min": [
        0.0006238498026505113,
        0.0020488444715738297
      ],
      "type": "VEC2"
    },
    {
      "bufferView": 0,
      "componentType": 5125,
      "count": 2388,
      "type": "SCALAR"
    }
  ],
  "asset": {
    "extras": {
      "author": "its_sagar_bro (https://sketchfab.com/its_sagar_bro)",
      "license": "CC-BY-4.0 (http://creativecommons.org/licenses/by/4.0/)",
      "source": "https://sketchfab.com/3d-models/low-poly-house-796232a307d24b6881f4f42476058701",
      "title": "Low poly house"
    },
    "generator": "Sketchfab-12.67.0",
    "version": "2.0"
  },
  "bufferViews": [
    {
      "buffer": 0,
      "byteLength": 9552,
      "name": "floatBufferViews",
      "target": 34963
    },
    {
      "buffer": 0,
      "byteLength": 23328,
      "byteOffset": 9552,
      "byteStride": 8,
      "name": "floatBufferViews",
      "target": 34962
    },
    {
      "buffer": 0,
      "byteLength": 34992,
      "byteOffset": 32880,
      "byteStride": 12,
      "name": "floatBufferViews",
      "target": 34962
    },
    {
      "buffer": 0,
      "byteLength": 23328,
      "byteOffset": 67872,
      "byteStride": 16,
      "name": "floatBufferViews",
      "target": 34962
    }
  ],
  "buffers": [
    {
      "byteLength": 91200,
      "uri": "scene.bin"
    }
  ],
  "images": [
    {
      "uri": "textures/House_Complete_baseColor.png"
    },
    {
      "uri": "textures/House_Complete_metallicRoughness.png"
    },
    {
      "uri": "textures/House_Complete_normal.png"
    }
  ],
  "materials": [
    {
      "doubleSided": true,
      "name": "House_Complete",
      "normalTexture": {
        "index": 2
      },
      "occlusionTexture": {
        "index": 1
      },
      "pbrMetallicRoughness": {
        "baseColorTexture": {
          "index": 0
        },
        "metallicFactor": 0.0,
        "metallicRoughnessTexture": {
          "index": 1
        }
      }
    }
  ],
  "meshes": [
    {
      "name": "House Complete.001_House Complete_0",
      "primitives": [
        {
          "attributes": {
            "NORMAL": 1,
            "POSITION": 0,
            "TANGENT": 2,
            "TEXCOORD_0": 3,
            "TEXCOORD_1": 4
          },
          "indices": 5,
          "material": 0,
          "mode": 4
        }
      ]
    }
  ],
  "nodes": [
    {
      "children": [
        1
      ],
      "matrix": [
        1.0,
        -1.6081226229577284e-16,
        -2.8327693431939995e-16,
        0.0,
        -2.832769343193999e-16,
        3.828568672208042e-16,
        -1.0,
        0.0,
        1.6081226229577292e-16,
        1.0,
        3.828568672208042e-16,
        0.0,
        -1.7053025658242404e-13,
        4.1020767071492614e-29,
        -1.8474111129762605e-13,
        1.0
      ],
      "name": "Sketchfab_model"
    },
    {
      "children": [
        2
      ],
      "matrix": [
        1.0,
        0.0,
        0.0,
        0.0,
        0.0,
        0.0,
        1.0,
        0.0,
        0.0,
        -1.0,
        0.0,
        0.0,
        0.0,
        0.0,
        0.0,
        1.0
      ],
      "name": "house 2.fbx"
    },
    {
      "children": [
        3
      ],
      "name": "RootNode"
    },
    {
      "children": [
        4
      ],
      "name": "House Complete.001"
    },
    {
      "mesh": 0,
      "name": "House Complete.001_House Complete_0"
    }
  ],
  "samplers": [
    {
      "magFilter": 9729,
      "minFilter": 9987,
      "wrapS": 10497,
      "wrapT": 10497
    }
  ],
  "scene": 0,
  "scenes": [
    {
      "name": "Sketchfab_Scene",
      "nodes": [
        0
      ]
    }
  ],
  "textures": [
    {
      "sampler": 0,
      "source": 0
    },
    {
      "sampler": 0,
      "source": 1
    },
    {
      "sampler": 0,
      "source": 2
    }
  ]
}
