{
  "accessors": [
    {
      "bufferView": 2,
      "componentType": 5126,
      "count": 550,
      "max": [
        67.3181381225586,
        18.38011932373047,
        107.33625030517578
      ],
      "min": [
        -67.31815338134766,
        -21.43075180053711,
        -1.574803113937378
      ],
      "type": "VEC3"
    },
    {
      "bufferView": 2,
      "byteOffset": 6600,
      "componentType": 5126,
      "count": 550,
      "max": [
        1.0,
        1.0,
        1.0
      ],
      "min": [
        -1.0,
        -1.0,
        -1.0
      ],
      "type": "VEC3"
    },
    {
      "bufferView": 1,
      "componentType": 5126,
      "count": 550,
      "max": [
        1.0,
        1.0
      ],
      "min": [
        -0.027777791023254395,
        -4.90906977290706e-08
      ],
      "type": "VEC2"
    },
    {
      "bufferView": 0,
      "componentType": 5125,
      "count": 1116,
      "type": "SCALAR"
    },
    {
      "bufferView": 2,
      "byteOffset": 13200,
      "componentType": 5126,
      "count": 84,
      "max": [
        78.74015045166016,
        19.68503761291504,
        165.0177764892578
      ],
      "min": [
        -78.74026489257813,
        -19.685041427612305,
        79.16230773925781
      ],
      "type": "VEC3"
    },
    {
      "bufferView": 2,
      "byteOffset": 14208,
      "componentType": 5126,
      "count": 84,
      "max": [
        1.0,
        1.0,
        1.0
      ],
      "min": [
        -1.0,
        -1.0,
        -1.0
      ],
      "type": "VEC3"
    },
    {
      "bufferView": 1,
      "byteOffset": 4400,
      "componentType": 5126,
      "count": 84,
      "max": [
        1.0,
        1.0
      ],
      "min": [
        0.0,
        0.0
      ],
      "type": "VEC2"
    },
    {
      "bufferView": 0,
      "byteOffset": 4464,
      "componentType": 5125,
      "count": 138,
      "type": "SCALAR"
    },
    {
      "bufferView": 2,
      "byteOffset": 15216,
      "componentType": 5126,
      "count": 4,
      "max": [
        78.74005126953125,
        12.631745338439941,
        165.00772094726563
      ],
      "min": [
        -78.74026489257813,
        12.63174057006836,
        105.96977233886719
      ],
      "type": "VEC3"
    },
    {
      "bufferView": 2,
      "byteOffset": 15264,
      "componentType": 5126,
      "count": 4,
      "max": [
        -1.8167495952070567e-08,
        -1.0,
        3.2307163166933606e-08
      ],
      "min": [
        -2.4223329120331982e-08,
        -1.0,
        1.6153581583466803e-08
      ],
      "type": "VEC3"
    },
    {
      "bufferView": 1,
      "byteOffset": 5072,
      "componentType": 5126,
      "count": 4,
      "max": [
        0.9979999661445618,
        0.6889467239379883
      ],
      "min": [
        0.0020000000949949026,
        0.315446674823761
      ],
      "type": "VEC2"
    },
    {
      "bufferView": 0,
      "byteOffset": 5016,
      "componentType": 5125,
      "count": 6,
      "type": "SCALAR"
    }
  ],
  "asset": {
    "extras": {
      "author": "Anthony Yanez (https://sketchfab.com/paulyanez)",
      "license": "CC-BY-4.0 (http://creativecommons.org/licenses/by/4.0/)",
      "source": "https://sketchfab.com/3d-models/low-poly-ad-billboard-864b8ce5d520478481198d1face5a7e5",
      "title": "Low poly Ad Billboard"
    },
    "generator": "Sketchfab-12.66.0",
    "version": "2.0"
  },
  "bufferViews": [
    {
      "buffer": 0,
      "byteLength": 5040,
      "name": "floatBufferViews",
      "target": 34963
    },
    {
      "buffer": 0,
      "byteLength": 5104,
      "byteOffset": 5040,
      "byteStride": 8,
      "name": "floatBufferViews",
      "target": 34962
    },
    {
      "buffer": 0,
      "byteLength": 15312,
      "byteOffset": 10144,
      "byteStride": 12,
      "name": "floatBufferViews",
      "target": 34962
    }
  ],
  "buffers": [
    {
      "byteLength": 25456,
      "uri": "scene.bin"
    }
  ],
  "images": [
    {
      "uri": "textures/Billboard_Texture_baseColor.png"
    }
  ],
  "materials": [
    {
      "doubleSided": true,
      "name": "Billboard_Mat_1",
      "pbrMetallicRoughness": {
        "baseColorFactor": [
          0.282353,
          0.282353,
          0.282353,
          1.0
        ],
        "roughnessFactor": 0.7255411321
      }
    },
    {
      "doubleSided": true,
      "name": "Billboard_Mat_2",
      "pbrMetallicRoughness": {
        "baseColorFactor": [
          0.0666667,
          0.0666667,
          0.0666667,
          1.0
        ],
        "roughnessFactor": 0.8929713596
      }
    },
    {
      "doubleSided": true,
      "name": "Billboard_Texture",
      "pbrMetallicRoughness": {
        "baseColorTexture": {
          "index": 0
        },
        "roughnessFactor": 0.8929713596
      }
    }
  ],
  "meshes": [
    {
      "name": "Billboard_Billboard Mat 1_0",
      "primitives": [
        {
          "attributes": {
            "NORMAL": 1,
            "POSITION": 0,
            "TEXCOORD_0": 2
          },
          "indices": 3,
          "material": 0,
          "mode": 4
        }
      ]
    },
    {
      "name": "Billboard_Billboard Mat 2_0",
      "primitives": [
        {
          "attributes": {
            "NORMAL": 5,
            "POSITION": 4,
            "TEXCOORD_0": 6
          },
          "indices": 7,
          "material": 1,
          "mode": 4
        }
      ]
    },
    {
      "name": "Billboard_Billboard Texture_0",
      "primitives": [
        {
          "attributes": {
            "NORMAL": 9,
            "POSITION": 8,
            "TEXCOORD_0": 10
          },
          "indices": 11,
          "material": 2,
          "mode": 4
        }
      ]
    }
  ],
  "nodes": [
    {
      "children": [
        1
      ],
      "matrix": [
        0.014348751865327358,
        0.0,
        0.0,
        0.0,
        0.0,
        3.1860629391039193e-18,
        -0.014348751865327358,
        0.0,
        0.0,
        0.014348751865327358,
        3.1860629391039193e-18,
        0.0,
        0.0,
        0.0,
        0.0,
        1.0
      ],
      "name": "Sketchfab_model"
    },
    {
      "children": [
        2
      ],
      "matrix": [
        1.0,
        0.0,
        0.0,
        0.0,
        0.0,
        0.0,
        1.0,
        0.0,
        0.0,
        -1.0,
        0.0,
        0.0,
        0.0,
        0.0,
        0.0,
        1.0
      ],
      "name": "ad_billboard.FBX"
    },
    {
      "children": [
        3
      ],
      "name": "RootNode"
    },
    {
      "children": [
        4
      ],
      "matrix": [
        1.0,
        0.0,
        0.0,
        0.0,
        0.0,
        2.220446049250313e-16,
        -1.0,
        0.0,
        0.0,
        1.0,
        2.220446049250313e-16,
        0.0,
        1.823902130126953e-05,
        0.0,
        -2.1515363641810836e-06,
        1.0
      ],
      "name": "Billboard"
    },
    {
      "children": [
        5,
        6,
        7
      ],
      "matrix": [
        1.0,
        0.0,
        -0.0,
        0.0,
        0.0,
        1.0,
        0.0,
        0.0,
        0.0,
        0.0,
        1.0,
        0.0,
        0.0,
        -5.6407913007205934e-08,
        1.290462613105774,
        1.0
      ],
      "name": "Object_4"
    },
    {
      "mesh": 0,
      "name": "Billboard_Billboard Mat 1_0"
    },
    {
      "mesh": 1,
      "name": "Billboard_Billboard Mat 2_0"
    },
    {
      "mesh": 2,
      "name": "Billboard_Billboard Texture_0"
    }
  ],
  "samplers": [
    {
      "magFilter": 9729,
      "minFilter": 9987,
      "wrapS": 10497,
      "wrapT": 10497
    }
  ],
  "scene": 0,
  "scenes": [
    {
      "name": "Sketchfab_Scene",
      "nodes": [
        0
      ]
    }
  ],
  "textures": [
    {
      "sampler": 0,
      "source": 0
    }
  ]
}
